<!DOCTYPE svg PUBLIC "-//W3C//DTD SVG 1.1//EN" "http://www.w3.org/Graphics/SVG/1.1/DTD/svg11.dtd">
<!-- Uploaded to: SVG Repo, www.svgrepo.com, Transformed by: SVG Repo Mixer Tools -->
<svg fill="#292c55" height="256px" width="256px" version="1.1" id="Layer_1" xmlns="http://www.w3.org/2000/svg" xmlns:xlink="http://www.w3.org/1999/xlink" viewBox="0 0 32.00 32.00" enable-background="new 0 0 32 32" xml:space="preserve" stroke="#292c55" stroke-width="3.2">
<g id="SVGRepo_bgCarrier" stroke-width="0"/>
<g id="SVGRepo_tracerCarrier" stroke-linecap="round" stroke-linejoin="round" stroke="#CCCCCC" stroke-width="4.288"> <path d="M24,6H8c-2.8,0-5,2.2-5,5v10c0,2.8,2.2,5,5,5h16c2.8,0,5-2.2,5-5V11C29,8.2,26.8,6,24,6z"/> </g>
<g id="SVGRepo_iconCarrier"> <path d="M24,6H8c-2.8,0-5,2.2-5,5v10c0,2.8,2.2,5,5,5h16c2.8,0,5-2.2,5-5V11C29,8.2,26.8,6,24,6z"/> </g>
</svg>